<svg xmlns="http://www.w3.org/2000/svg" width="15.977" height="19.172" viewBox="0 0 15.977 19.172">
  <path id="document" d="M13.982,11.184a.8.8,0,0,1-.8.8H6.793a.8.8,0,0,1,0-1.6h6.391A.8.8,0,0,1,13.982,11.184Zm-3.2,2.4H6.793a.8.8,0,0,0,0,1.6h3.994a.8.8,0,1,0,0-1.6Zm7.189-5.2v6.8a4,4,0,0,1-3.994,3.994H5.994A4,4,0,0,1,2,15.178V3.994A4,4,0,0,1,5.994,0H9.6a5.558,5.558,0,0,1,3.954,1.638l2.783,2.785A5.553,5.553,0,0,1,17.977,8.376ZM12.426,2.767a4,4,0,0,0-.84-.623V5.592a.8.8,0,0,0,.8.8h3.448a3.981,3.981,0,0,0-.624-.839Zm3.953,5.609c0-.132-.026-.258-.038-.387H12.385a2.4,2.4,0,0,1-2.4-2.4V1.635C9.859,1.623,9.732,1.6,9.6,1.6H5.994a2.4,2.4,0,0,0-2.4,2.4V15.178a2.4,2.4,0,0,0,2.4,2.4h7.988a2.4,2.4,0,0,0,2.4-2.4Z" transform="translate(-2 0)" fill="#082654"/>
</svg>
