<svg xmlns="http://www.w3.org/2000/svg" width="18.624" height="18.624" viewBox="0 0 18.624 18.624">
  <g id="member-list_2_" data-name="member-list(2)" fill="#fff">
    <path d="M 16.29586029052734 18.12384033203125 L 12.41588973999023 18.12384033203125 C 11.40793991088867 18.12384033203125 10.58790969848633 17.30381011962891 10.58790969848633 16.29586029052734 L 10.58790969848633 10.86390972137451 C 10.58790969848633 9.855959892272949 11.40793991088867 9.035930633544922 12.41588973999023 9.035930633544922 L 16.29586029052734 9.035930633544922 C 17.30381011962891 9.035930633544922 18.12384033203125 9.855959892272949 18.12384033203125 10.86390972137451 L 18.12384033203125 16.29586029052734 C 18.12384033203125 17.30381011962891 17.30381011962891 18.12384033203125 16.29586029052734 18.12384033203125 Z M 12.41588973999023 9.587909698486328 C 11.71230983734131 9.587909698486328 11.13990020751953 10.16032028198242 11.13990020751953 10.86390972137451 L 11.13990020751953 16.29586029052734 C 11.13990020751953 16.99943923950195 11.71230983734131 17.57184982299805 12.41588973999023 17.57184982299805 L 16.29586029052734 17.57184982299805 C 16.99943923950195 17.57184982299805 17.57184982299805 16.99943923950195 17.57184982299805 16.29586029052734 L 17.57184982299805 10.86390972137451 C 17.57184982299805 10.16032028198242 16.99943923950195 9.587909698486328 16.29586029052734 9.587909698486328 L 12.41588973999023 9.587909698486328 Z M 0.7759901881217957 18.12384033203125 C 0.6238101720809937 18.12384033203125 0.5000001788139343 18.00003051757812 0.5000001788139343 17.84785079956055 C 0.5000001788139343 14.27259063720703 3.408680200576782 11.36390972137451 6.983940124511719 11.36390972137451 L 7.75993013381958 11.36390972137451 C 7.912120342254639 11.36390972137451 8.035930633544922 11.48772048950195 8.035930633544922 11.63990020751953 C 8.035930633544922 11.79207992553711 7.912120342254639 11.91588973999023 7.75993013381958 11.91588973999023 L 6.983940124511719 11.91588973999023 C 3.713050127029419 11.91588973999023 1.051990151405334 14.57696056365967 1.051990151405334 17.84785079956055 C 1.051990151405334 18.00003051757812 0.9281801581382751 18.12384033203125 0.7759901881217957 18.12384033203125 Z M 15.51986980438232 15.01986980438232 L 13.19188976287842 15.01986980438232 C 13.03970050811768 15.01986980438232 12.91588973999023 14.8960599899292 12.91588973999023 14.74386978149414 C 12.91588973999023 14.59169006347656 13.03970050811768 14.46788024902344 13.19188976287842 14.46788024902344 L 15.51986980438232 14.46788024902344 C 15.67205047607422 14.46788024902344 15.79586029052734 14.59169006347656 15.79586029052734 14.74386978149414 C 15.79586029052734 14.8960599899292 15.67205047607422 15.01986980438232 15.51986980438232 15.01986980438232 Z M 15.51986980438232 12.68955993652344 L 13.19188976287842 12.68955993652344 C 13.03970050811768 12.68955993652344 12.91588973999023 12.56575012207031 12.91588973999023 12.41357040405273 C 12.91588973999023 12.26138019561768 13.03970050811768 12.13757038116455 13.19188976287842 12.13757038116455 L 15.51986980438232 12.13757038116455 C 15.67205047607422 12.13757038116455 15.79586029052734 12.26138019561768 15.79586029052734 12.41357040405273 C 15.79586029052734 12.56575012207031 15.67205047607422 12.68955993652344 15.51986980438232 12.68955993652344 Z M 6.983940124511719 8.811920166015625 C 4.69234037399292 8.811920166015625 2.827980279922485 6.94756031036377 2.827980279922485 4.655960083007812 C 2.827980279922485 2.364360094070435 4.69234037399292 0.5000001788139343 6.983940124511719 0.5000001788139343 C 9.275540351867676 0.5000001788139343 11.13990020751953 2.364360094070435 11.13990020751953 4.655960083007812 C 11.13990020751953 6.94756031036377 9.275540351867676 8.811920166015625 6.983940124511719 8.811920166015625 Z M 6.983940124511719 1.051990151405334 C 4.996700286865234 1.051990151405334 3.379970073699951 2.668720245361328 3.379970073699951 4.655960083007812 C 3.379970073699951 6.643200397491455 4.996700286865234 8.259930610656738 6.983940124511719 8.259930610656738 C 8.971179962158203 8.259930610656738 10.58790969848633 6.643200397491455 10.58790969848633 4.655960083007812 C 10.58790969848633 2.668720245361328 8.971179962158203 1.051990151405334 6.983940124511719 1.051990151405334 Z" stroke="none"/>
    <path d="M 6.983940124511719 0 C 9.551700592041016 0 11.63990020751953 2.088199615478516 11.63990020751953 4.655960083007812 C 11.63990020751953 7.223720550537109 9.551700592041016 9.311920166015625 6.983940124511719 9.311920166015625 C 4.416180610656738 9.311920166015625 2.327980041503906 7.223720550537109 2.327980041503906 4.655960083007812 C 2.327980041503906 2.088199615478516 4.416180610656738 0 6.983940124511719 0 Z M 6.983940124511719 7.759930610656738 C 8.695779800415039 7.759930610656738 10.08790969848633 6.367799758911133 10.08790969848633 4.655960083007812 C 10.08790969848633 2.944120407104492 8.695779800415039 1.551990509033203 6.983940124511719 1.551990509033203 C 5.272100448608398 1.551990509033203 3.879970550537109 2.944120407104492 3.879970550537109 4.655960083007812 C 3.879970550537109 6.367799758911133 5.272100448608398 7.759930610656738 6.983940124511719 7.759930610656738 Z M 12.41588973999023 8.535930633544922 L 16.29586029052734 8.535930633544922 C 17.57934951782227 8.535930633544922 18.62384033203125 9.580410003662109 18.62384033203125 10.86391067504883 L 18.62384033203125 16.29586029052734 C 18.62384033203125 17.57934951782227 17.57934951782227 18.62384033203125 16.29586029052734 18.62384033203125 L 12.41588973999023 18.62384033203125 C 11.13240051269531 18.62384033203125 10.08790969848633 17.57934951782227 10.08790969848633 16.29586029052734 L 10.08790969848633 10.86391067504883 C 10.08790969848633 9.580410003662109 11.13240051269531 8.535930633544922 12.41588973999023 8.535930633544922 Z M 16.29586029052734 17.07184982299805 C 16.72421073913574 17.07184982299805 17.07184982299805 16.72343063354492 17.07184982299805 16.29586029052734 L 17.07184982299805 10.86391067504883 C 17.07184982299805 10.43632984161377 16.72421073913574 10.08790969848633 16.29586029052734 10.08790969848633 L 12.41588973999023 10.08790969848633 C 11.98755073547363 10.08790969848633 11.63990020751953 10.43632984161377 11.63990020751953 10.86391067504883 L 11.63990020751953 16.29586029052734 C 11.63990020751953 16.72343063354492 11.98755073547363 17.07184982299805 12.41588973999023 17.07184982299805 L 16.29586029052734 17.07184982299805 Z M 6.983940124511719 10.86391067504883 L 7.759930610656738 10.86391067504883 C 8.189060211181641 10.86391067504883 8.535930633544922 11.21154975891113 8.535930633544922 11.63990020751953 C 8.535930633544922 12.06825065612793 8.189060211181641 12.41588973999023 7.759930610656738 12.41588973999023 L 6.983940124511719 12.41588973999023 C 3.9893798828125 12.41588973999023 1.551990509033203 14.85251045227051 1.551990509033203 17.84785079956055 C 1.551990509033203 18.27619934082031 1.205120086669922 18.62384033203125 0.7759895324707031 18.62384033203125 C 0.3468704223632812 18.62384033203125 0 18.27619934082031 0 17.84785079956055 C 0 13.99736976623535 3.13267993927002 10.86391067504883 6.983940124511719 10.86391067504883 Z M 13.19189071655273 11.63757038116455 L 15.51987075805664 11.63757038116455 C 15.94898986816406 11.63757038116455 16.29586029052734 11.98521995544434 16.29586029052734 12.41357040405273 C 16.29586029052734 12.84191036224365 15.94898986816406 13.18955993652344 15.51987075805664 13.18955993652344 L 13.19189071655273 13.18955993652344 C 12.76276016235352 13.18955993652344 12.41588973999023 12.84191036224365 12.41588973999023 12.41357040405273 C 12.41588973999023 11.98521995544434 12.76276016235352 11.63757038116455 13.19189071655273 11.63757038116455 Z M 13.19189071655273 13.96788024902344 L 15.51987075805664 13.96788024902344 C 15.94898986816406 13.96788024902344 16.29586029052734 14.31553077697754 16.29586029052734 14.74386978149414 C 16.29586029052734 15.17222023010254 15.94898986816406 15.51987075805664 15.51987075805664 15.51987075805664 L 13.19189071655273 15.51987075805664 C 12.76276016235352 15.51987075805664 12.41588973999023 15.17222023010254 12.41588973999023 14.74386978149414 C 12.41588973999023 14.31553077697754 12.76276016235352 13.96788024902344 13.19189071655273 13.96788024902344 Z" stroke="none" fill="#082654"/>
  </g>
</svg>
