<svg xmlns="http://www.w3.org/2000/svg" xmlns:xlink="http://www.w3.org/1999/xlink" width="31" height="32" viewBox="0 0 31 32">
  <defs>
    <clipPath id="clip-path">
      <rect id="Rectangle_91" data-name="Rectangle 91" width="28" height="28" rx="10" transform="translate(-0.444 -0.444)" fill="#fff" stroke="#24539b" stroke-width="1"/>
    </clipPath>
  </defs>
  <g id="Group_37" data-name="Group 37" transform="translate(-623 -481)">
    <g id="Group_36" data-name="Group 36">
      <g id="Group_34" data-name="Group 34" transform="translate(9.444 4.444)">
        <g id="Rectangle_90" data-name="Rectangle 90" transform="translate(613.556 480.556)" fill="#fff" stroke="#24539b" stroke-width="1">
          <rect width="28" height="28" rx="10" stroke="none"/>
          <rect x="0.5" y="0.5" width="27" height="27" rx="9.5" fill="none"/>
        </g>
        <g id="Mask_Group_7" data-name="Mask Group 7" transform="translate(614 481)" clip-path="url(#clip-path)">
          <g id="Group_33" data-name="Group 33" transform="translate(-3.991 13.929)">
            <path id="Path_48" data-name="Path 48" d="M14477.931,511.663c.776-.776,13.54-13.627,13.54-13.627l11.385,13.627Z" transform="translate(-14477.931 -498.037)" fill="#21bcd8" stroke="#24539b" stroke-width="1"/>
            <path id="Path_49" data-name="Path 49" d="M14477.932,508.652c.6-.6,10.547-10.615,10.547-10.615l8.869,10.615Z" transform="translate(-14464.547 -495.025)" fill="#21bcd8" stroke="#24539b" stroke-width="1"/>
          </g>
        </g>
        <g id="Rectangle_92" data-name="Rectangle 92" transform="translate(613.556 480.556)" fill="none" stroke="#24539b" stroke-width="1">
          <rect width="28" height="28" rx="10" stroke="none"/>
          <rect x="0.5" y="0.5" width="27" height="27" rx="9.5" fill="none"/>
        </g>
      </g>
    </g>
    <g id="Group_35" data-name="Group 35" transform="translate(-3)">
      <circle id="Ellipse_25" data-name="Ellipse 25" cx="9" cy="9" r="9" transform="translate(639 481)" fill="#fff"/>
      <path id="arrow-small-up" d="M14.009,8.341,11.068,5.406a1.368,1.368,0,0,0-1.929,0L6.2,8.341a.684.684,0,1,0,.971.964l2.25-2.25v7.524a.684.684,0,1,0,1.368,0V7.055l2.25,2.25a.684.684,0,1,0,.971-.964Z" transform="translate(637.896 479.865)" fill="#24539b"/>
    </g>
  </g>
</svg>
