<svg xmlns="http://www.w3.org/2000/svg" width="19.03" height="17.444" viewBox="0 0 19.03 17.444">
  <path id="pulse" d="M15.065,1H3.964A3.969,3.969,0,0,0,0,4.964v6.343a3.969,3.969,0,0,0,3.964,3.964H8.722v1.586H5.55a.793.793,0,1,0,0,1.586h7.929a.793.793,0,1,0,0-1.586H10.308V15.272h4.757a3.969,3.969,0,0,0,3.964-3.964V4.964A3.969,3.969,0,0,0,15.065,1Zm2.379,10.308a2.379,2.379,0,0,1-2.379,2.379H3.964a2.379,2.379,0,0,1-2.379-2.379V4.964A2.379,2.379,0,0,1,3.964,2.586h11.1a2.379,2.379,0,0,1,2.379,2.379ZM15.858,8.136a.793.793,0,0,1-.793.793H12.714l-1.348,2.026a.793.793,0,0,1-.662.353h-.049a.793.793,0,0,1-.66-.437L8.227,7.334,7.4,8.576a.793.793,0,0,1-.66.353H3.964a.793.793,0,0,1,0-1.586H6.315L7.663,5.317a.783.783,0,0,1,.711-.353.793.793,0,0,1,.66.437L10.8,8.937l.828-1.242a.793.793,0,0,1,.66-.351h2.775A.793.793,0,0,1,15.858,8.136Z" transform="translate(0 -1)" fill="#082654"/>
</svg>
