<svg xmlns="http://www.w3.org/2000/svg" width="60" height="60.011" viewBox="0 0 60 60.011">
  <path id="EMI" d="M28.755,15A3.751,3.751,0,1,1,25,18.753,3.752,3.752,0,0,1,28.755,15Zm-15-7.5A3.751,3.751,0,1,0,10,3.751,3.752,3.752,0,0,0,13.752,7.5ZM58.1,32.543l-17.016,19.1a25.026,25.026,0,0,1-18.668,8.372H10a10.012,10.012,0,0,1-10-10v-12.5a10.012,10.012,0,0,1,10-10H32.151a7.859,7.859,0,0,1,6.724,3.8l8.041-8.837a7.527,7.527,0,0,1,10.637-.5A7.553,7.553,0,0,1,58.1,32.541Zm-3.916-6.879a2.593,2.593,0,0,0-1.82-.655,2.51,2.51,0,0,0-1.75.823L39.547,37.994a7.9,7.9,0,0,1-6.286,5.148l-12.9,1.843a2.5,2.5,0,1,1-.708-4.948l12.9-1.843a2.856,2.856,0,0,0-.4-5.684H10a5.006,5.006,0,0,0-5,5v12.5a5.006,5.006,0,0,0,5,5H22.417a20.022,20.022,0,0,0,14.935-6.7l17.016-19.1a2.541,2.541,0,0,0-.183-3.553ZM14.278,22.109a2.5,2.5,0,0,0,3.456-.75L28.983,3.853a2.5,2.5,0,1,0-4.208-2.7l-11.252,17.5a2.5,2.5,0,0,0,.753,3.456Z" transform="translate(0 0)"/>
</svg>
