<svg width="337" height="92" viewBox="0 0 337 92" fill="none" xmlns="http://www.w3.org/2000/svg">
<path d="M120.11 79.2919H114V41.5094H120.11L131.694 71.5913L143.295 41.5094H149.488V79.2919H143.377V67.6538C143.377 65.7493 143.377 64.1569 143.382 62.8673C143.391 61.5823 143.404 60.4855 143.434 59.5861C143.46 58.6866 143.495 57.8927 143.539 57.2135C143.587 56.5297 143.648 55.8413 143.727 55.1483L134.592 79.2919H128.791L119.691 55.1942C119.875 56.3415 119.988 57.7917 120.036 59.5539C120.088 61.3162 120.11 63.3905 120.11 65.7722V79.2919Z" fill="#2B2C6B"/>
<path d="M155.134 66.4881C155.134 63.831 155.692 61.4905 156.81 59.4713C157.931 57.4521 159.472 55.8734 161.436 54.7353C163.4 53.5972 165.635 53.0281 168.14 53.0281C170.654 53.0281 172.884 53.5972 174.831 54.7353C176.782 55.8734 178.314 57.4521 179.431 59.4713C180.553 61.4905 181.111 63.831 181.111 66.4881C181.111 69.1407 180.553 71.472 179.431 73.482C178.314 75.4966 176.782 77.0707 174.831 78.2042C172.884 79.3424 170.654 79.9114 168.14 79.9114C165.635 79.9114 163.4 79.3424 161.436 78.2042C159.472 77.0707 157.931 75.4966 156.81 73.482C155.692 71.472 155.134 69.1407 155.134 66.4881ZM161.157 66.4514C161.157 67.998 161.458 69.3609 162.051 70.5404C162.649 71.7198 163.47 72.6376 164.509 73.2893C165.552 73.9409 166.761 74.2667 168.14 74.2667C169.515 74.2667 170.724 73.9409 171.767 73.2893C172.81 72.6376 173.622 71.7198 174.207 70.5404C174.791 69.3609 175.084 67.998 175.084 66.4514C175.084 64.8957 174.791 63.5373 174.207 62.3762C173.622 61.2152 172.81 60.3065 171.767 59.6549C170.724 58.9986 169.515 58.6728 168.14 58.6728C166.761 58.6728 165.552 58.9986 164.509 59.6549C163.47 60.3065 162.649 61.2152 162.051 62.3762C161.458 63.5373 161.157 64.8957 161.157 66.4514Z" fill="#2B2C6B"/>
<path d="M191.866 79.2919H185.887V53.7578H191.421L191.914 57.0804C192.678 55.7954 193.747 54.7904 195.131 54.0699C196.51 53.354 198.029 52.996 199.683 52.996C202.729 52.996 205.029 53.9368 206.583 55.8184C208.137 57.6999 208.909 60.2882 208.909 63.5832V79.2919H202.934V65.0609C202.934 62.9453 202.472 61.3575 201.542 60.2974C200.612 59.2419 199.369 58.7095 197.81 58.7095C195.951 58.7095 194.493 59.3291 193.442 60.5681C192.39 61.8026 191.866 63.4593 191.866 65.5336V79.2919Z" fill="#2B2C6B"/>
<path d="M225.697 79.9481C223.296 79.9481 221.171 79.3745 219.32 78.2318C217.465 77.0845 216.012 75.5012 214.96 73.482C213.904 71.4628 213.38 69.1361 213.38 66.5065C213.38 63.8494 213.891 61.5089 214.916 59.4851C215.942 57.4567 217.369 55.8734 219.193 54.7215C221.022 53.5697 223.126 52.996 225.505 52.996C227.936 52.996 230.039 53.533 231.816 54.6022C233.588 55.6761 234.962 57.1859 235.931 59.1363C236.905 61.0821 237.389 63.3859 237.389 66.043V67.9521L216.549 68.0255L216.649 63.9962H231.432C231.432 62.2248 230.903 60.8114 229.838 59.7559C228.778 58.6958 227.346 58.168 225.539 58.168C224.125 58.168 222.934 58.4755 221.974 59.0996C221.013 59.7191 220.285 60.6416 219.791 61.8715C219.294 63.1059 219.045 64.6204 219.045 66.4239C219.045 69.1774 219.612 71.2563 220.747 72.6652C221.886 74.0694 223.567 74.7762 225.801 74.7762C227.438 74.7762 228.787 74.4503 229.847 73.8033C230.903 73.1608 231.593 72.2384 231.916 71.036H237.459C236.957 73.8033 235.656 75.9831 233.57 77.5664C231.48 79.1542 228.856 79.9481 225.697 79.9481Z" fill="#2B2C6B"/>
<path d="M245.804 53.7578L253.695 77.3139L250.452 83.7984L239.418 53.7578H245.804ZM240.073 91.1227V85.8819H243.661C244.455 85.8819 245.149 85.7901 245.747 85.602C246.34 85.4138 246.873 85.065 247.335 84.5602C247.794 84.0508 248.2 83.2982 248.549 82.2932L258.6 53.7578H264.798L252.918 84.9549C252.019 87.3275 250.897 89.0484 249.553 90.1177C248.208 91.187 246.537 91.7239 244.542 91.7239C243.713 91.7239 242.927 91.6734 242.19 91.5724C241.456 91.4715 240.749 91.3246 240.073 91.1227Z" fill="#2B2C6B"/>
<path d="M273.752 79.2919H268.218V40.8164H274.197V57.4704C274.978 56.0386 276.126 54.9326 277.645 54.1433C279.16 53.354 280.853 52.9593 282.721 52.9593C285.021 52.9593 287.007 53.5421 288.67 54.7078C290.333 55.8734 291.612 57.4888 292.511 59.5493C293.41 61.6099 293.859 63.9962 293.859 66.7084C293.859 69.2967 293.379 71.5913 292.423 73.5921C291.472 75.593 290.128 77.1533 288.395 78.2731C286.662 79.3883 284.633 79.9481 282.306 79.9481C280.504 79.9481 278.872 79.5351 277.409 78.7136C275.947 77.8876 274.856 76.7541 274.132 75.2993L273.752 79.2919ZM274.245 66.4193C274.245 67.9383 274.525 69.2921 275.088 70.4669C275.651 71.6463 276.445 72.5642 277.475 73.2158C278.501 73.8675 279.71 74.1979 281.097 74.1979C282.507 74.1979 283.712 73.8629 284.711 73.1975C285.715 72.5321 286.483 71.6188 287.024 70.4532C287.561 69.2829 287.832 67.9383 287.832 66.4193C287.832 64.8957 287.561 63.5511 287.024 62.39C286.483 61.229 285.715 60.3157 284.711 59.6457C283.712 58.9757 282.507 58.6361 281.097 58.6361C279.71 58.6361 278.501 58.9665 277.475 59.6273C276.445 60.2836 275.651 61.1922 275.088 62.3533C274.525 63.5143 274.245 64.8682 274.245 66.4193Z" fill="#2B2C6B"/>
<path d="M298.644 79.2919V53.7578H304.623V79.2919H298.644ZM301.598 48.6593C300.581 48.6593 299.722 48.283 299.01 47.5395C298.303 46.7961 297.95 45.8966 297.95 44.8365C297.95 43.7718 298.303 42.8678 299.01 42.1289C299.722 41.39 300.581 41.0229 301.598 41.0229C302.589 41.0229 303.44 41.39 304.147 42.1289C304.859 42.8678 305.212 43.7718 305.212 44.8365C305.212 45.8966 304.859 46.7961 304.147 47.5395C303.44 48.283 302.589 48.6593 301.598 48.6593Z" fill="#2B2C6B"/>
<path d="M310.833 91.1227V53.7578H316.368L316.747 57.6403C317.494 56.1534 318.615 55.0107 320.112 54.203C321.609 53.3953 323.268 52.996 325.092 52.996C327.397 52.996 329.4 53.5421 331.093 54.6344C332.796 55.7312 334.114 57.2639 335.056 59.2419C336.004 61.2152 336.475 63.5465 336.475 66.2358C336.475 68.8745 336.03 71.2333 335.144 73.3031C334.258 75.3773 332.97 77.0065 331.286 78.1997C329.601 79.3883 327.545 79.9848 325.127 79.9848C323.307 79.9848 321.653 79.6177 320.174 78.8835C318.694 78.1492 317.572 77.1442 316.813 75.8684V91.1227H310.833ZM316.861 66.5249C316.861 68.0393 317.14 69.3839 317.703 70.5633C318.266 71.7427 319.061 72.6606 320.091 73.3168C321.116 73.9731 322.325 74.3035 323.713 74.3035C325.123 74.3035 326.328 73.9685 327.327 73.2985C328.331 72.6284 329.099 71.7106 329.64 70.545C330.177 69.3793 330.448 68.0393 330.448 66.5249C330.448 65.0013 330.177 63.6566 329.64 62.491C329.099 61.3254 328.331 60.4075 327.327 59.7421C326.328 59.0813 325.123 58.7462 323.713 58.7462C322.325 58.7462 321.116 59.0721 320.091 59.7283C319.061 60.38 318.266 61.2886 317.703 62.4543C317.14 63.6199 316.861 64.9783 316.861 66.5249Z" fill="#2B2C6B"/>
<path d="M16.1338 35.9488L17.562 35.0546C18.6947 34.3467 20.1229 34.3194 21.2802 34.9851C21.9229 35.3552 22.4375 35.9141 22.7576 36.5847L41.265 75.324C42.703 78.3444 45.7268 80.2645 49.0462 80.2645C52.3408 80.2645 55.345 78.3767 56.7978 75.396L61.4739 65.7956L60.0457 66.6899C58.913 67.3978 57.4848 67.4251 56.3275 66.7594C55.6848 66.3893 55.1677 65.8304 54.85 65.1598L36.3427 26.4205C34.9046 23.4001 31.8808 21.48 28.559 21.48C25.2693 21.48 22.2627 23.3678 20.8099 26.3485L16.1338 35.9488Z" fill="#2B2C6B"/>
<path d="M42.4639 18.4046L40.5276 19.617L46.8675 6.60073C48.8372 2.55947 52.9135 0 57.3738 0C61.8775 0 65.9772 2.60325 67.9269 6.6984L93.0193 59.2214C93.45 60.1307 94.1511 60.8884 95.0225 61.3902C96.5916 62.2927 98.5279 62.2557 100.064 61.2959L102 60.0835L95.6601 73.0998C93.6904 77.141 89.6174 79.7005 85.1504 79.7005C80.6501 79.7005 76.5504 77.0972 74.6007 73.0021L49.5082 20.4791C49.0742 19.5698 48.3765 18.8121 47.5051 18.3103C45.936 17.4078 43.9997 17.4448 42.4639 18.4046Z" fill="#2B2C6B"/>
<path d="M2.97399 75.1468L0.415562 69.7914C-0.143402 68.619 -0.138478 67.2504 0.430335 66.0829L5.03255 56.6366C6.57647 53.4646 11.063 53.482 12.5847 56.6664L16.5566 64.9801C16.8767 65.6532 17.3913 66.2121 18.0365 66.5797C19.1938 67.2479 20.6195 67.2206 21.7547 66.5127L23.1829 65.6185L18.5068 75.2188C17.054 78.197 14.0474 80.0873 10.7552 80.0873C7.43585 80.0873 4.40956 78.1672 2.97399 75.1468Z" fill="#2B2C6B"/>
</svg>
