<svg xmlns="http://www.w3.org/2000/svg" width="18" height="18" viewBox="0 0 18 18">
  <path id="photo-capture" d="M13.5,9A4.5,4.5,0,1,0,9,13.5,4.5,4.5,0,0,0,13.5,9ZM9,12a3,3,0,1,1,3-3A3,3,0,0,1,9,12ZM6,17.25a.749.749,0,0,1-.75.75H3.75A3.754,3.754,0,0,1,0,14.25v-1.5a.75.75,0,0,1,1.5,0v1.5A2.253,2.253,0,0,0,3.75,16.5h1.5A.749.749,0,0,1,6,17.25Zm12-4.5v1.5A3.754,3.754,0,0,1,14.25,18h-1.5a.75.75,0,0,1,0-1.5h1.5a2.253,2.253,0,0,0,2.25-2.25v-1.5a.75.75,0,0,1,1.5,0Zm0-9v1.5a.75.75,0,0,1-1.5,0V3.75A2.253,2.253,0,0,0,14.25,1.5h-1.5a.75.75,0,0,1,0-1.5h1.5A3.754,3.754,0,0,1,18,3.75ZM0,5.25V3.75A3.754,3.754,0,0,1,3.75,0h1.5a.75.75,0,0,1,0,1.5H3.75A2.253,2.253,0,0,0,1.5,3.75v1.5a.75.75,0,0,1-1.5,0Z" fill="#26b9db"/>
</svg>
