<svg xmlns="http://www.w3.org/2000/svg" width="60" height="45" viewBox="0 0 60 45">
  <path id="Principal" d="M50,3H20A10,10,0,0,0,10,13V28A10,10,0,0,0,20,38H50A10,10,0,0,0,60,28V13A10,10,0,0,0,50,3Zm5,25a5.015,5.015,0,0,1-5,5H20a5.015,5.015,0,0,1-5-5V13a5.015,5.015,0,0,1,5-5H50a5.015,5.015,0,0,1,5,5ZM47.5,45.5A2.507,2.507,0,0,1,45,48H12.5A12.5,12.5,0,0,1,0,35.5V18a2.5,2.5,0,1,1,5,0V35.5A7.522,7.522,0,0,0,12.5,43H45A2.507,2.507,0,0,1,47.5,45.5ZM35,13a7.5,7.5,0,1,0,7.5,7.5A7.522,7.522,0,0,0,35,13Zm0,10a2.5,2.5,0,1,1,2.5-2.5A2.507,2.507,0,0,1,35,23Z" transform="translate(0 -3)"/>
</svg>
