<svg xmlns="http://www.w3.org/2000/svg" width="16.624" height="15.502" viewBox="0 0 16.624 15.502">
  <path id="headset_1_" data-name="headset(1)" d="M17.624,13.087a3.627,3.627,0,0,0-1.722-3.5c-.082-5.422-2.123-7.846-6.59-7.846S2.8,4.172,2.721,9.608A3.666,3.666,0,0,0,1,13.087c0,3.7,2.749,4.122,4.817,4.122a.755.755,0,0,0,.717-.518,11.524,11.524,0,0,0,0-7.208.756.756,0,0,0-.717-.518,8.825,8.825,0,0,0-1.569.112c.2-4.806,2.178-5.823,5.064-5.823s4.862,1.018,5.064,5.826a9.456,9.456,0,0,0-1.569-.115.755.755,0,0,0-.717.518,11.54,11.54,0,0,0-.271,6.248c-.8.014-1.574-.01-2.3-.069A.756.756,0,0,0,9.4,17.168c.634.051,1.3.077,1.987.077q.706,0,1.444-.036c1.211,0,4.8-.023,4.8-4.122ZM5.26,15.685c-2.017-.1-2.748-.824-2.748-2.6s.731-2.494,2.748-2.6a10.026,10.026,0,0,1,0,5.2Zm8.1,0a10.026,10.026,0,0,1,0-5.2c2.017.1,2.748.824,2.748,2.6s-.731,2.494-2.748,2.6Z" transform="translate(-1 -1.743)" fill="#082654"/>
</svg>
